<svg width="80" height="80" xmlns="http://www.w3.org/2000/svg">
  <defs>
    <linearGradient id="coachGrad" x1="0%" y1="0%" x2="100%" y2="100%">
      <stop offset="0%" style="stop-color:#4CAF50;stop-opacity:1" />
      <stop offset="100%" style="stop-color:#81C784;stop-opacity:1" />
    </linearGradient>
    <filter id="coachShadow" x="-20%" y="-20%" width="140%" height="140%">
      <feDropShadow dx="2" dy="2" stdDeviation="3" flood-opacity="0.3"/>
    </filter>
  </defs>
  
  <!-- Background Circle -->
  <circle cx="40" cy="40" r="40" fill="url(#coachGrad)" filter="url(#coachShadow)"/>
  
  <!-- Whistle -->
  <path d="M25 35 Q30 32 35 35 L45 35 Q50 32 55 35 L55 38 L45 38 L35 38 Z" 
        fill="#FFFFFF" stroke="#000" stroke-width="1"/>
  <circle cx="50" cy="40" r="3" fill="#FF5722"/>
  
  <!-- Coach -->
  <path d="M28 45 Q28 42 32 42 L48 42 Q52 42 52 45 L52 60 Q52 63 48 63 L32 63 Q28 63 28 60 Z" 
        fill="#FFFFFF" opacity="0.9"/>
  
  <!-- Letter E -->
  <text x="40" y="56" font-family="Arial Black, sans-serif" 
        font-size="14" font-weight="bold" fill="#2E7D32" text-anchor="middle">E</text>
  
  <!-- Cap -->
  <path d="M25 25 Q40 20 55 25 L55 28 Q40 23 25 28 Z" 
        fill="#1976D2" opacity="0.8"/>
</svg>
